<?xml version="1.0" encoding="UTF-8"?>
<svg xmlns="http://www.w3.org/2000/svg" viewBox="0 0 162 32" width="162" height="32">
  <defs>
    <linearGradient id="gradient" x1="0%" y1="0%" x2="100%" y2="0%">
      <stop offset="0%" style="stop-color:#1b2773"></stop>
      <stop offset="100%" style="stop-color:#bf64a2"></stop>
    </linearGradient>
  </defs>
  <rect width="162" height="32" rx="4" fill="url(#gradient)"></rect>
  <path fill="#FFF" transform="translate(8,7) scale(0.33)" d="M25,2.5C12.2,2.5,1.9,12.8,1.9,25.6c0,10.2,6.6,18.9,15.8,21.9c1.2,0.2,1.5-0.5,1.5-1.1c0-0.5,0-2.1,0-4c-6.4,1.4-7.8-3-7.8-3c-1-2.7-2.6-3.4-2.6-3.4C6.7,34.6,9,34.6,9,34.6c2.3,0.2,3.5,2.4,3.5,2.4c2.1,3.5,5.4,2.5,6.7,1.9c0.2-1.5,0.8-2.5,1.5-3.1c-5.1-0.6-10.5-2.6-10.5-11.4c0-2.5,0.9-4.6,2.4-6.2c-0.2-0.6-1-2.9,0.2-6.1c0,0,1.9-0.6,6.3,2.4c1.8-0.5,3.8-0.8,5.8-0.8s3.9,0.3,5.8,0.8c4.4-3,6.3-2.4,6.3-2.4c1.3,3.2,0.5,5.5,0.2,6.1c1.5,1.6,2.4,3.7,2.4,6.2c0,8.9-5.4,10.8-10.5,11.4c0.8,0.7,1.6,2.1,1.6,4.3c0,2.9,0,5.6,0,6.4c0,0.6,0.4,1.3,1.5,1.1C41.4,44.5,48,35.9,48,25.7C48.1,12.8,37.8,2.5,25,2.5z"></path>
  <line x1="32" y1="0" x2="32" y2="32" stroke="#bf64a2" stroke-width="1" opacity="0.3"></line>
  <text x="42" y="20" font-family="Arial, sans-serif" font-size="12" fill="white">Demo on GitHub</text>
</svg>